<?xml version="1.0" encoding="UTF-8" standalone="no"?>
<!-- Created with Inkscape (http://www.inkscape.org/) -->

<svg
   xmlns:dc="http://purl.org/dc/elements/1.1/"
   xmlns:cc="http://creativecommons.org/ns#"
   xmlns:rdf="http://www.w3.org/1999/02/22-rdf-syntax-ns#"
   xmlns:svg="http://www.w3.org/2000/svg"
   xmlns="http://www.w3.org/2000/svg"
   xmlns:sodipodi="http://sodipodi.sourceforge.net/DTD/sodipodi-0.dtd"
   xmlns:inkscape="http://www.inkscape.org/namespaces/inkscape"
   width="256"
   height="256"
   viewBox="0 0 67.733333 67.733333"
   version="1.1"
   id="svg8"
   inkscape:version="0.92.5 (2060ec1f9f, 2020-04-08)"
   sodipodi:docname="logo.svg"
   inkscape:export-filename="/home/ruof/Projects/imdash/src/imdash/resources/logo.png"
   inkscape:export-xdpi="24.000004"
   inkscape:export-ydpi="24.000004">
  <defs
     id="defs2">
    <rect
       x="0"
       y="57.524628"
       width="30.866519"
       height="40.831263"
       id="rect47482" />
    <rect
       x="66.087603"
       y="85.331618"
       width="350.30128"
       height="229.8703"
       id="rect2313" />
    <rect
       x="66.087601"
       y="85.331619"
       width="350.30127"
       height="229.8703"
       id="rect2313-1" />
    <rect
       x="66.087601"
       y="85.331619"
       width="350.30127"
       height="229.8703"
       id="rect2313-1-1" />
  </defs>
  <sodipodi:namedview
     id="base"
     pagecolor="#383838"
     bordercolor="#666666"
     borderopacity="1.0"
     inkscape:pageopacity="0"
     inkscape:pageshadow="2"
     inkscape:zoom="2.5715521"
     inkscape:cx="94.222241"
     inkscape:cy="127.26534"
     inkscape:document-units="mm"
     inkscape:current-layer="layer1"
     showgrid="false"
     inkscape:snap-page="true"
     showguides="false"
     inkscape:guide-bbox="true"
     inkscape:window-width="1848"
     inkscape:window-height="1136"
     inkscape:window-x="1992"
     inkscape:window-y="27"
     inkscape:window-maximized="1"
     units="px"
     inkscape:snap-bbox="true"
     inkscape:bbox-nodes="true"
     inkscape:pagecheckerboard="0"
     inkscape:snap-grids="false"
     inkscape:snap-to-guides="false">
    <sodipodi:guide
       position="62.273799,-54.522983"
       orientation="0,1"
       id="guide150174"
       inkscape:locked="false" />
    <sodipodi:guide
       position="-45.836724,95.68249"
       orientation="1,0"
       id="guide150199"
       inkscape:locked="false" />
  </sodipodi:namedview>
  <metadata
     id="metadata5">
    <rdf:RDF>
      <cc:Work
         rdf:about="">
        <dc:format>image/svg+xml</dc:format>
        <dc:type
           rdf:resource="http://purl.org/dc/dcmitype/StillImage" />
        <dc:title />
      </cc:Work>
    </rdf:RDF>
  </metadata>
  <g
     inkscape:label="Layer 1"
     inkscape:groupmode="layer"
     id="layer1"
     transform="translate(0,-229.26667)">
    <rect
       style="opacity:1;fill:#234079;fill-opacity:1;stroke:none;stroke-width:0.215;stroke-linecap:round;stroke-linejoin:miter;stroke-miterlimit:4;stroke-dasharray:none;stroke-dashoffset:0;stroke-opacity:1;paint-order:normal"
       id="rect150132"
       width="67.518402"
       height="67.518677"
       x="0.10746562"
       y="229.37399"
       ry="7.0278463"
       inkscape:export-filename="/home/ruof/Projects/imdash/src/imdash/resources/logo_large.png"
       inkscape:export-xdpi="192"
       inkscape:export-ydpi="192" />
    <g
       id="g150314"
       transform="matrix(0.69822652,0,0,0.69822645,-0.960773,89.564292)">
      <text
         xml:space="preserve"
         transform="matrix(0.40440538,0,0,0.40440542,-1.7638046,196.59051)"
         id="text47480"
         style="font-style:normal;font-weight:normal;font-size:40px;line-height:1.25;font-family:sans-serif;white-space:pre;shape-inside:url(#rect47482);fill:#000000;fill-opacity:1;stroke:none" />
      <g
         id="g61481"
         transform="matrix(2.4562795,0,0,2.4562797,10.579386,209.28513)"
         style="fill:#ffffff">
        <path
           d="m 24,21 h 2 v 5 h -2 z m -4,-5 h 2 V 26 H 20 Z M 11,26 A 5.006,5.006 0 0 1 6,21 h 2 a 3,3 0 1 0 3,-3 v -2 a 5,5 0 0 1 0,10 z"
           id="path61469"
           style="fill:#ffffff"
           inkscape:connector-curvature="0" />
        <path
           d="M 28,2 H 4 A 2.002,2.002 0 0 0 2,4 v 24 a 2.002,2.002 0 0 0 2,2 h 24 a 2.003,2.003 0 0 0 2,-2 V 4 A 2.002,2.002 0 0 0 28,2 Z m 0,9 H 14 V 4 H 28 Z M 12,4 v 7 H 4 V 4 Z M 4,28 V 13 h 24 l 0.002,15 z"
           id="path61471"
           style="fill:#ffffff"
           inkscape:connector-curvature="0" />
      </g>
    </g>
    <rect
       style="opacity:0.5;fill:none;fill-opacity:1;stroke:#808080;stroke-width:0.215;stroke-linecap:round;stroke-linejoin:miter;stroke-miterlimit:4;stroke-dasharray:none;stroke-dashoffset:0;stroke-opacity:1;paint-order:normal"
       id="rect150132-3"
       width="67.518402"
       height="67.518677"
       x="0.10746562"
       y="229.37399"
       ry="7.0278463"
       inkscape:export-filename="/home/ruof/Projects/imdash/src/imdash/resources/logo_large.png"
       inkscape:export-xdpi="192"
       inkscape:export-ydpi="192" />
  </g>
</svg>
